# xmcd
#
# Track frame offsets: 
#        150
#        12125
#        25905
#        40163
#        54110
#        70122
#        85305
#        98642
#        114035
#        126995
#        142022
#        155590
#
# Disc length: 2267 seconds
#
# Revision: 4
# Processed by: cddbd v1.5.2PL0 Copyright (c) Steve Scherf et al.
# Submitted via: ExactAudioCopy v1.0b3
#
DISCID=9008d90c
DTITLE=Linda Feller - Grundverschieden
DYEAR=1995
DGENRE=Country
TTITLE0=Grundverschieden
TTITLE1=Am Ende der Strasse stehst du
TTITLE2=Keiner lügt so schlecht wie du
TTITLE3=Auf dem Weg durch die Nacht
TTITLE4=Warum g'rade ihn
TTITLE5=Weil du mich liebst
TTITLE6=Nägel mit Köpfen
TTITLE7=Du tust mir so gut
TTITLE8=Sie macht die Nacht zum Tag
TTITLE9=Ich hab' den Frosch geküsst
TTITLE10=Fragen über Fragen
TTITLE11=Ein Diamant aus Stein
EXTD=
EXTT0=
EXTT1=
EXTT2=
EXTT3=
EXTT4=
EXTT5=
EXTT6=
EXTT7=
EXTT8=
EXTT9=
EXTT10=
EXTT11=
PLAYORDER=
